<svg width="32" height="32" viewBox="0 0 32 32" fill="none" xmlns="http://www.w3.org/2000/svg">
  <!-- 背景圆形 -->
  <circle cx="16" cy="16" r="15" fill="#4F46E5" stroke="#3730A3" stroke-width="1"/>

  <!-- 鸭子身体 -->
  <ellipse cx="16" cy="20" rx="8" ry="6" fill="#FFD700" stroke="#FFA500" stroke-width="0.8"/>

  <!-- 鸭子头部 -->
  <circle cx="16" cy="12" r="6" fill="#FFD700" stroke="#FFA500" stroke-width="0.8"/>

  <!-- 鸭嘴 -->
  <ellipse cx="12" cy="13" rx="2.5" ry="1.5" fill="#FF8C00" stroke="#FF6347" stroke-width="0.5"/>

  <!-- 眼睛 -->
  <circle cx="14" cy="10" r="1.2" fill="#000000"/>
  <circle cx="18" cy="10" r="1.2" fill="#000000"/>

  <!-- 眼睛高光 -->
  <circle cx="14.3" cy="9.7" r="0.4" fill="#FFFFFF"/>
  <circle cx="18.3" cy="9.7" r="0.4" fill="#FFFFFF"/>

  <!-- 翅膀 -->
  <ellipse cx="22" cy="18" rx="3" ry="4" fill="#FFA500" stroke="#FF8C00" stroke-width="0.5"/>

  <!-- 脚 -->
  <ellipse cx="13" cy="26" rx="1.5" ry="1" fill="#FF8C00"/>
  <ellipse cx="19" cy="26" rx="1.5" ry="1" fill="#FF8C00"/>

  <!-- 可爱的腮红 -->
  <circle cx="11" cy="14" r="1" fill="#FFB6C1" opacity="0.7"/>
  <circle cx="21" cy="14" r="1" fill="#FFB6C1" opacity="0.7"/>

  <!-- 装饰性星星 -->
  <path d="M6 8 L6.5 9 L7.5 9 L6.8 9.7 L7 10.5 L6 10 L5 10.5 L5.2 9.7 L4.5 9 L5.5 9 Z" fill="#FFFFFF" opacity="0.8"/>
  <path d="M26 6 L26.3 6.7 L27 6.7 L26.5 7.2 L26.7 7.8 L26 7.5 L25.3 7.8 L25.5 7.2 L25 6.7 L25.7 6.7 Z" fill="#FFFFFF" opacity="0.6"/>
</svg>
